<mxfile host="app.diagrams.net" modified="2024-07-11T03:02:48.812Z" agent="Mozilla/5.0 (Macintosh; Intel Mac OS X 10_15_7) AppleWebKit/605.1.15 (KHTML, like Gecko) Version/17.5 Safari/605.1.15" etag="BBh8uht2yfArtxz5-DWK" version="24.6.4" type="github">
  <diagram name="Page-1" id="QJOc4FPXJreE6Yzap2Jc">
    <mxGraphModel dx="954" dy="647" grid="1" gridSize="10" guides="1" tooltips="1" connect="1" arrows="1" fold="1" page="1" pageScale="1" pageWidth="827" pageHeight="1169" math="0" shadow="0">
      <root>
        <mxCell id="0" />
        <mxCell id="1" parent="0" />
        <mxCell id="AW5dsRTVW_Ctcq2CAhQz-2" value="&lt;font size=&quot;3&quot;&gt;Firewall Inbound\Outbound&lt;/font&gt;&lt;div&gt;&lt;font size=&quot;3&quot;&gt;Application Rule Layer7&lt;/font&gt;&lt;/div&gt;&lt;div&gt;&lt;font size=&quot;3&quot;&gt;Network Rule (DNS Level Rule)&lt;/font&gt;&lt;/div&gt;&lt;div&gt;&lt;font size=&quot;3&quot;&gt;NAT Network address Translation&lt;/font&gt;&lt;/div&gt;&lt;div&gt;&lt;font size=&quot;3&quot;&gt;Package Inspection&lt;/font&gt;&lt;/div&gt;&lt;div&gt;&lt;font size=&quot;3&quot;&gt;&lt;br&gt;&lt;/font&gt;&lt;/div&gt;" style="text;html=1;align=left;verticalAlign=middle;whiteSpace=wrap;rounded=0;" vertex="1" parent="1">
          <mxGeometry x="40" y="110" width="270" height="80" as="geometry" />
        </mxCell>
        <mxCell id="AW5dsRTVW_Ctcq2CAhQz-3" value="&lt;font style=&quot;font-size: 24px;&quot;&gt;Firewall&lt;/font&gt;" style="text;html=1;align=left;verticalAlign=middle;whiteSpace=wrap;rounded=0;" vertex="1" parent="1">
          <mxGeometry x="50" y="20" width="190" height="30" as="geometry" />
        </mxCell>
        <mxCell id="AW5dsRTVW_Ctcq2CAhQz-4" value="" style="image;aspect=fixed;perimeter=ellipsePerimeter;html=1;align=center;shadow=0;dashed=0;spacingTop=3;image=img/lib/active_directory/internet_globe.svg;" vertex="1" parent="1">
          <mxGeometry x="30" y="420" width="50" height="50" as="geometry" />
        </mxCell>
        <mxCell id="AW5dsRTVW_Ctcq2CAhQz-5" value="" style="rounded=1;whiteSpace=wrap;html=1;" vertex="1" parent="1">
          <mxGeometry x="200" y="290" width="520" height="340" as="geometry" />
        </mxCell>
        <mxCell id="AW5dsRTVW_Ctcq2CAhQz-7" value="" style="whiteSpace=wrap;html=1;aspect=fixed;" vertex="1" parent="1">
          <mxGeometry x="260" y="340" width="120" height="120" as="geometry" />
        </mxCell>
        <mxCell id="AW5dsRTVW_Ctcq2CAhQz-8" value="" style="image;html=1;image=img/lib/clip_art/networking/Firewall_02_128x128.png" vertex="1" parent="1">
          <mxGeometry x="281.25" y="360" width="80" height="80" as="geometry" />
        </mxCell>
        <mxCell id="AW5dsRTVW_Ctcq2CAhQz-9" value="Azure Firewall Subnet&lt;div&gt;/26&lt;/div&gt;" style="text;html=1;align=center;verticalAlign=middle;whiteSpace=wrap;rounded=0;" vertex="1" parent="1">
          <mxGeometry x="400" y="360" width="160" height="60" as="geometry" />
        </mxCell>
        <mxCell id="AW5dsRTVW_Ctcq2CAhQz-10" value="" style="rounded=0;whiteSpace=wrap;html=1;" vertex="1" parent="1">
          <mxGeometry x="260" y="492.75" width="120" height="120" as="geometry" />
        </mxCell>
        <mxCell id="AW5dsRTVW_Ctcq2CAhQz-11" value="" style="outlineConnect=0;dashed=0;verticalLabelPosition=bottom;verticalAlign=top;align=center;html=1;shape=mxgraph.aws3.workspaces;fillColor=#D16A28;gradientColor=#F58435;gradientDirection=north;" vertex="1" parent="1">
          <mxGeometry x="278.75" y="505.5" width="82.5" height="94.5" as="geometry" />
        </mxCell>
        <mxCell id="AW5dsRTVW_Ctcq2CAhQz-12" style="edgeStyle=orthogonalEdgeStyle;rounded=0;orthogonalLoop=1;jettySize=auto;html=1;exitX=1;exitY=0.75;exitDx=0;exitDy=0;entryX=1;entryY=0.5;entryDx=0;entryDy=0;" edge="1" parent="1" source="AW5dsRTVW_Ctcq2CAhQz-8" target="AW5dsRTVW_Ctcq2CAhQz-8">
          <mxGeometry relative="1" as="geometry" />
        </mxCell>
      </root>
    </mxGraphModel>
  </diagram>
</mxfile>
